# xmcd CD database file generated by Grip 3.2.0
# 
# Track frame offsets:
#       182
#       13215
#       24995
#       36292
#       48140
#       59042
#       70895
#       80967
#       91267
#       101775
#       112850
#       123460
#       135300
#       146687
#       157027
#       167805
#       180665
#       191072
#       202330
#       212960
#       223262
# 
# Disc length: 3117 seconds
# 
# Revision: 1
# Processed by: cddbd v1.5.2PL0 Copyright (c) Steve Scherf et al.
# Submitted via: Grip 3.2.0
# 
DISCID=450c2b15
DTITLE=Robert Johnson - The Complete Recordings [CD2]
DYEAR=1990
DGENRE=Blues
TTITLE0=Preaching Blues (Up Jumped The Devil)
TTITLE1=If I Had Possession Over Judgement Day
TTITLE2=Stones In My Passway
TTITLE3=I'm A Steady Rollin' Man
TTITLE4=From Four Till Late
TTITLE5=Hellhound On My Trail
TTITLE6=Little Queen Of Spades (Take 1)
TTITLE7=Little Queen Of Spades (Take 2)
TTITLE8=Malted Milk
TTITLE9=Drunken Hearted Man (Take 1)
TTITLE10=Drunken Hearted Man (Take 2)
TTITLE11=Me And The Devil Blues (Take 1)
TTITLE12=Me And The Devil Blues (Take 2)
TTITLE13=Stop Breakin' Down Blues (Take 1)
TTITLE14=Stop Breakin' Down Blues (Take 2)
TTITLE15=Traveling Riverside Blues
TTITLE16=Honeymoon Blues
TTITLE17=Love In Vain (Take 1)
TTITLE18=Love In Vain (Take 2)
TTITLE19=Milkcow's Calf Blues (Take 1)
TTITLE20=Milkcow's Calf Blues (Take 2)
EXTD=
EXTT0=
EXTT1=
EXTT2=
EXTT3=
EXTT4=
EXTT5=
EXTT6=
EXTT7=
EXTT8=
EXTT9=
EXTT10=
EXTT11=
EXTT12=
EXTT13=
EXTT14=
EXTT15=
EXTT16=
EXTT17=
EXTT18=
EXTT19=
EXTT20=
PLAYORDER=
